<mxfile host="app.diagrams.net" modified="2023-11-23T13:28:09.659Z" agent="Mozilla/5.0 (Windows NT 10.0; Win64; x64) AppleWebKit/537.36 (KHTML, like Gecko) Chrome/119.0.0.0 Safari/537.36" version="22.1.3" etag="bY-rGbn4O_BbjM-eJfoQ" type="github">
  <diagram name="PÃ¡gina-1" id="n9FW8dnRLbQ6332BU5e5">
    <mxGraphModel>
      <root>
        <mxCell id="0" />
        <mxCell id="1" parent="0" />
      </root>
    </mxGraphModel>
  </diagram>
</mxfile>
